<?xml version="1.0" encoding="UTF-8" standalone="no"?>
<!-- Created with Inkscape (http://www.inkscape.org/) -->

<svg
   xmlns:dc="http://purl.org/dc/elements/1.1/"
   xmlns:cc="http://creativecommons.org/ns#"
   xmlns:rdf="http://www.w3.org/1999/02/22-rdf-syntax-ns#"
   xmlns:svg="http://www.w3.org/2000/svg"
   xmlns="http://www.w3.org/2000/svg"
   xmlns:sodipodi="http://sodipodi.sourceforge.net/DTD/sodipodi-0.dtd"
   xmlns:inkscape="http://www.inkscape.org/namespaces/inkscape"
   width="210mm"
   height="297mm"
   viewBox="0 0 744.09448819 1052.3622047"
   id="svg21940"
   version="1.1"
   inkscape:version="0.91 r13725"
   sodipodi:docname="background.svg">
  <defs
     id="defs21942" />
  <sodipodi:namedview
     id="base"
     pagecolor="#1b2128"
     bordercolor="#666666"
     borderopacity="1.0"
     inkscape:pageopacity="0"
     inkscape:pageshadow="2"
     inkscape:zoom="0.32"
     inkscape:cx="258.35676"
     inkscape:cy="-502.37033"
     inkscape:document-units="px"
     inkscape:current-layer="layer1"
     showgrid="false"
     inkscape:window-width="801"
     inkscape:window-height="433"
     inkscape:window-x="1021"
     inkscape:window-y="586"
     inkscape:window-maximized="0" />
  <metadata
     id="metadata21945">
    <rdf:RDF>
      <cc:Work
         rdf:about="">
        <dc:format>image/svg+xml</dc:format>
        <dc:type
           rdf:resource="http://purl.org/dc/dcmitype/StillImage" />
        <dc:title></dc:title>
      </cc:Work>
    </rdf:RDF>
  </metadata>
  <g
     inkscape:label="Layer 1"
     inkscape:groupmode="layer"
     id="layer1">
    <ellipse
       style="color:#000000;clip-rule:nonzero;display:inline;overflow:visible;visibility:visible;opacity:1;isolation:auto;mix-blend-mode:normal;color-interpolation:sRGB;color-interpolation-filters:linearRGB;solid-color:#000000;solid-opacity:1;fill:none;fill-opacity:1;fill-rule:nonzero;stroke:#ffffff;stroke-width:3.224;stroke-linecap:butt;stroke-linejoin:miter;stroke-miterlimit:5;stroke-dasharray:38.688,38.688;stroke-dashoffset:32.24;stroke-opacity:1;color-rendering:auto;image-rendering:auto;shape-rendering:auto;text-rendering:auto;enable-background:accumulate"
       id="path23575"
       cx="334.95517"
       cy="1689.1116"
       rx="450.90057"
       ry="450.9006"
       inkscape:export-filename="/home/stephane/Downloads/background_0.png"
       inkscape:export-xdpi="53.650154"
       inkscape:export-ydpi="53.650154" />
    <path
       d="m 710.47836,1692.0711 c 0,207.4372 -168.17484,375.6027 -375.62123,375.6027 -207.4464,0 -375.621209,-168.1655 -375.621209,-375.6027 0,-207.4418 168.174809,-375.6073 375.621209,-375.6073 207.44639,0 375.62123,168.1655 375.62123,375.6073"
       style="fill:#276088;fill-opacity:0.16279069;fill-rule:nonzero;stroke:none"
       id="path12194"
       inkscape:connector-curvature="0"
       inkscape:export-filename="/home/stephane/Downloads/background_0.png"
       inkscape:export-xdpi="53.650154"
       inkscape:export-ydpi="53.650154" />
    <rect
       style="color:#000000;clip-rule:nonzero;display:inline;overflow:visible;visibility:visible;opacity:1;isolation:auto;mix-blend-mode:normal;color-interpolation:sRGB;color-interpolation-filters:linearRGB;solid-color:#000000;solid-opacity:1;fill:#ff6d7f;fill-opacity:1;fill-rule:nonzero;stroke:#000000;stroke-width:0.68166375;stroke-linecap:butt;stroke-linejoin:miter;stroke-miterlimit:4;stroke-dasharray:none;stroke-dashoffset:0;stroke-opacity:1;color-rendering:auto;image-rendering:auto;shape-rendering:auto;text-rendering:auto;enable-background:accumulate"
       id="rect22974"
       width="1676.8531"
       height="294.9646"
       x="-462.64987"
       y="1876.667"
       ry="0"
       inkscape:export-filename="/home/stephane/Downloads/background_0.png"
       inkscape:export-xdpi="53.650154"
       inkscape:export-ydpi="53.650154" />
    <path
       d="m 744.88064,2045.7185 c 25.00888,0 45.2802,-9.4614 45.2802,-21.1247 0,-11.6769 -20.27132,-21.1384 -45.2802,-21.1384 -25.0082,0 -45.27951,9.4615 -45.27951,21.1384 0,11.6633 20.27131,21.1247 45.27951,21.1247"
       style="fill:#296171;fill-opacity:1;fill-rule:nonzero;stroke:none"
       id="path9150"
       inkscape:connector-curvature="0"
       inkscape:export-filename="/home/stephane/Downloads/background_0.png"
       inkscape:export-xdpi="53.650154"
       inkscape:export-ydpi="53.650154" />
    <path
       d="m -273.1044,2119.7404 c 25.017,0 45.2897,-9.4615 45.2897,-21.1384 0,-11.6701 -20.2727,-21.1247 -45.2897,-21.1247 -24.9966,0 -45.26931,9.4546 -45.26931,21.1247 0,11.6769 20.27271,21.1384 45.26931,21.1384"
       style="fill:#296171;fill-opacity:1;fill-rule:nonzero;stroke:none"
       id="path9152"
       inkscape:connector-curvature="0"
       inkscape:export-filename="/home/stephane/Downloads/background_0.png"
       inkscape:export-xdpi="53.650154"
       inkscape:export-ydpi="53.650154" />
    <path
       d="m 87.5025,2024.5938 c 25.0035,0 45.2761,-9.4683 45.2761,-21.1384 0,-11.6769 -20.2726,-21.1248 -45.2761,-21.1248 -25.0102,0 -45.2897,9.4479 -45.2897,21.1248 0,11.6701 20.2795,21.1384 45.2897,21.1384"
       style="fill:#296171;fill-opacity:1;fill-rule:nonzero;stroke:none"
       id="path9154"
       inkscape:connector-curvature="0"
       inkscape:export-filename="/home/stephane/Downloads/background_0.png"
       inkscape:export-xdpi="53.650154"
       inkscape:export-ydpi="53.650154" />
    <path
       d="m -297.12226,1953.5507 c 25.017,0 45.2897,-9.4615 45.2897,-21.1247 0,-11.6769 -20.2727,-21.1248 -45.2897,-21.1248 -24.9966,0 -45.26931,9.4479 -45.26931,21.1248 0,11.6632 20.27271,21.1247 45.26931,21.1247"
       style="fill:#296171;fill-opacity:1;fill-rule:nonzero;stroke:none"
       id="path9156"
       inkscape:connector-curvature="0"
       inkscape:export-filename="/home/stephane/Downloads/background_0.png"
       inkscape:export-xdpi="53.650154"
       inkscape:export-ydpi="53.650154" />
    <path
       d="m 992.18348,2005.2141 c 34.46422,0 62.40702,-13.0334 62.40702,-29.1139 0,-16.0872 -27.9428,-29.1206 -62.40702,-29.1206 -34.46356,0 -62.40632,13.0334 -62.40632,29.1206 0,16.0805 27.94276,29.1139 62.40632,29.1139"
       style="fill:#296171;fill-opacity:1;fill-rule:nonzero;stroke:none"
       id="path9158"
       inkscape:connector-curvature="0"
       inkscape:export-filename="/home/stephane/Downloads/background_0.png"
       inkscape:export-xdpi="53.650154"
       inkscape:export-ydpi="53.650154" />
    <path
       d="m 411.81087,2113.4691 c 17.58693,0 31.8337,-6.653 31.8337,-14.8671 0,-8.2004 -14.24677,-14.8466 -31.8337,-14.8466 -17.58692,0 -31.84051,6.6462 -31.84051,14.8466 0,8.2141 14.25359,14.8671 31.84051,14.8671"
       style="fill:#296171;fill-opacity:1;fill-rule:nonzero;stroke:none"
       id="path9160"
       inkscape:connector-curvature="0"
       inkscape:export-filename="/home/stephane/Downloads/background_0.png"
       inkscape:export-xdpi="53.650154"
       inkscape:export-ydpi="53.650154" />
    <path
       d="m -20.2003,2128.3157 c 17.5869,0 31.8336,-6.6394 31.8336,-14.8466 0,-8.214 -14.2467,-14.8671 -31.8336,-14.8671 -2.1609,0 -4.2673,0.1023 -6.3054,0.2863 l -6.5508,5.5283 -10.6135,-1.002 c -5.1943,2.6516 -8.364,6.1758 -8.364,10.0545 0,8.2072 14.2535,14.8466 31.8337,14.8466"
       style="fill:#296171;fill-opacity:1;fill-rule:nonzero;stroke:none"
       id="path9162"
       inkscape:connector-curvature="0"
       inkscape:export-filename="/home/stephane/Downloads/background_0.png"
       inkscape:export-xdpi="53.650154"
       inkscape:export-ydpi="53.650154" />
    <path
       d="m 562.34404,2005.2141 c 34.46424,0 62.40427,-13.0334 62.40427,-29.1139 0,-16.0872 -27.94003,-29.1206 -62.40427,-29.1206 -34.46356,0 -62.407,13.0334 -62.407,29.1206 0,16.0805 27.94344,29.1139 62.407,29.1139"
       style="fill:#296171;fill-opacity:1;fill-rule:nonzero;stroke:none"
       id="path9164"
       inkscape:connector-curvature="0"
       inkscape:export-filename="/home/stephane/Downloads/background_0.png"
       inkscape:export-xdpi="53.650154"
       inkscape:export-ydpi="53.650154" />
    <path
       d="m -163.18462,1890.0828 86.98982,-9.3388 -86.98982,9.3388 0,0"
       style="fill:#3b7e8d;fill-opacity:1;fill-rule:nonzero;stroke:none"
       id="path9168"
       inkscape:connector-curvature="0"
       inkscape:export-filename="/home/stephane/Downloads/background_0.png"
       inkscape:export-xdpi="53.650154"
       inkscape:export-ydpi="53.650154" />
    <path
       d="m 757.06061,1879.0177 -89.77989,-154.5877 -75.09276,4.9625 -29.05046,123.6879 -49.02662,25.9373 -29.90732,44.758 247.94156,23.2039 43.0382,-36.2509 -18.12271,-31.711"
       style="fill:#225b6f;fill-opacity:1;fill-rule:nonzero;stroke:none"
       id="path9172"
       inkscape:connector-curvature="0"
       inkscape:export-filename="/home/stephane/Downloads/background_0.png"
       inkscape:export-xdpi="53.650154"
       inkscape:export-ydpi="53.650154" />
    <path
       d="m 732.14512,1946.9796 23.19497,-19.5365 -23.19497,19.5365 -73.59583,-6.8917 -0.003,0 73.59856,6.8917"
       style="fill:#3b7e8d;fill-opacity:1;fill-rule:nonzero;stroke:none"
       id="path9174"
       inkscape:connector-curvature="0"
       inkscape:export-filename="/home/stephane/Downloads/background_0.png"
       inkscape:export-xdpi="53.650154"
       inkscape:export-ydpi="53.650154" />
    <path
       d="m 732.14512,1946.9796 23.19497,-19.5365 19.84323,-16.7144 -18.12271,-31.711 -89.77989,-154.5877 -25.94071,1.7109 33.25224,79.4139 -49.84394,70.8862 49.84394,33.8991 -16.04296,29.7478 73.59583,6.8917"
       style="fill:#2e6d7f;fill-opacity:1;fill-rule:nonzero;stroke:none"
       id="path9178"
       inkscape:connector-curvature="0"
       inkscape:export-filename="/home/stephane/Downloads/background_0.png"
       inkscape:export-xdpi="53.650154"
       inkscape:export-ydpi="53.650154" />
    <path
       d="m -17.7941,2062.7942 -54.9966,-94.6899 -45.985,3.0471 -17.7983,75.7532 -30.0273,15.8896 -18.3095,27.4097 151.8543,14.2127 26.3599,-22.2018 -11.0975,-19.4206"
       style="fill:#225b6f;fill-opacity:1;fill-rule:nonzero;stroke:none"
       id="path9180"
       inkscape:connector-curvature="0"
       inkscape:export-filename="/home/stephane/Downloads/background_0.png"
       inkscape:export-xdpi="53.650154"
       inkscape:export-ydpi="53.650154" />
    <path
       d="m -43.67,2103.4146 0,0 -34.4649,-3.2243 0,0 34.4649,3.2243"
       style="fill:#3b7e8d;fill-opacity:1;fill-rule:nonzero;stroke:none"
       id="path9182"
       inkscape:connector-curvature="0"
       inkscape:export-filename="/home/stephane/Downloads/background_0.png"
       inkscape:export-xdpi="53.650154"
       inkscape:export-ydpi="53.650154" />
    <path
       d="m -33.0565,2104.4166 6.5508,-5.5283 0,0 -6.5508,5.5283 -10.6135,-1.002 0,0 10.6135,1.002"
       style="fill:#377280;fill-opacity:1;fill-rule:nonzero;stroke:none"
       id="path9184"
       inkscape:connector-curvature="0"
       inkscape:export-filename="/home/stephane/Downloads/background_0.png"
       inkscape:export-xdpi="53.650154"
       inkscape:export-ydpi="53.650154" />
    <path
       d="m 989.4515,1951.3998 15.8828,-1.0634 -15.8828,1.0498"
       style="fill:#3b7e8d;fill-opacity:1;fill-rule:nonzero;stroke:none"
       id="path9186"
       inkscape:connector-curvature="0"
       inkscape:export-filename="/home/stephane/Downloads/background_0.png"
       inkscape:export-xdpi="53.650154"
       inkscape:export-ydpi="53.650154" />
    <path
       d="m -33.0565,2104.4166 6.5508,-5.5283 19.8091,-16.6735 -11.0975,-19.4206 -54.9966,-94.6899 -15.8828,1.0634 20.3613,48.6367 -30.5249,43.4084 30.5249,20.7634 -9.8227,18.2141 34.4649,3.2243 10.6135,1.002"
       style="fill:#2e6d7f;fill-opacity:1;fill-rule:nonzero;stroke:none"
       id="path9188"
       inkscape:connector-curvature="0"
       inkscape:export-filename="/home/stephane/Downloads/background_0.png"
       inkscape:export-xdpi="53.650154"
       inkscape:export-ydpi="53.650154" />
    <rect
       style="color:#000000;clip-rule:nonzero;display:inline;overflow:visible;visibility:visible;opacity:1;isolation:auto;mix-blend-mode:normal;color-interpolation:sRGB;color-interpolation-filters:linearRGB;solid-color:#000000;solid-opacity:1;fill:#30353b;fill-opacity:1;fill-rule:nonzero;stroke:#000000;stroke-width:0.68166375;stroke-linecap:butt;stroke-linejoin:miter;stroke-miterlimit:4;stroke-dasharray:none;stroke-dashoffset:0;stroke-opacity:1;color-rendering:auto;image-rendering:auto;shape-rendering:auto;text-rendering:auto;enable-background:accumulate"
       id="rect22877"
       width="340.71429"
       height="45"
       x="-302.14285"
       y="1460.2194"
       ry="22.5"
       inkscape:export-filename="/home/stephane/Downloads/background_0.png"
       inkscape:export-xdpi="53.650154"
       inkscape:export-ydpi="53.650154" />
    <rect
       style="color:#000000;clip-rule:nonzero;display:inline;overflow:visible;visibility:visible;opacity:1;isolation:auto;mix-blend-mode:normal;color-interpolation:sRGB;color-interpolation-filters:linearRGB;solid-color:#000000;solid-opacity:1;fill:#30353b;fill-opacity:1;fill-rule:nonzero;stroke:#000000;stroke-width:0.68166375;stroke-linecap:butt;stroke-linejoin:miter;stroke-miterlimit:4;stroke-dasharray:none;stroke-dashoffset:0;stroke-opacity:1;color-rendering:auto;image-rendering:auto;shape-rendering:auto;text-rendering:auto;enable-background:accumulate"
       id="rect22877-3"
       width="340.71429"
       height="45"
       x="-396.07144"
       y="1427.0051"
       ry="22.5"
       inkscape:export-filename="/home/stephane/Downloads/background_0.png"
       inkscape:export-xdpi="53.650154"
       inkscape:export-ydpi="53.650154" />
    <rect
       style="color:#000000;clip-rule:nonzero;display:inline;overflow:visible;visibility:visible;opacity:1;isolation:auto;mix-blend-mode:normal;color-interpolation:sRGB;color-interpolation-filters:linearRGB;solid-color:#000000;solid-opacity:1;fill:#30353b;fill-opacity:1;fill-rule:nonzero;stroke:#000000;stroke-width:0.68166375;stroke-linecap:butt;stroke-linejoin:miter;stroke-miterlimit:4;stroke-dasharray:none;stroke-dashoffset:0;stroke-opacity:1;color-rendering:auto;image-rendering:auto;shape-rendering:auto;text-rendering:auto;enable-background:accumulate"
       id="rect22877-6"
       width="340.71429"
       height="45"
       x="673.75"
       y="1292.1837"
       ry="22.5"
       inkscape:export-filename="/home/stephane/Downloads/background_0.png"
       inkscape:export-xdpi="53.650154"
       inkscape:export-ydpi="53.650154" />
    <rect
       style="color:#000000;clip-rule:nonzero;display:inline;overflow:visible;visibility:visible;opacity:1;isolation:auto;mix-blend-mode:normal;color-interpolation:sRGB;color-interpolation-filters:linearRGB;solid-color:#000000;solid-opacity:1;fill:#30353b;fill-opacity:1;fill-rule:nonzero;stroke:#000000;stroke-width:0.68166375;stroke-linecap:butt;stroke-linejoin:miter;stroke-miterlimit:4;stroke-dasharray:none;stroke-dashoffset:0;stroke-opacity:1;color-rendering:auto;image-rendering:auto;shape-rendering:auto;text-rendering:auto;enable-background:accumulate"
       id="rect22877-3-7"
       width="340.71429"
       height="45"
       x="579.82141"
       y="1258.9695"
       ry="22.5"
       inkscape:export-filename="/home/stephane/Downloads/background_0.png"
       inkscape:export-xdpi="53.650154"
       inkscape:export-ydpi="53.650154" />
    <path
       d="m 925.98792,1885.7964 6.90525,-72.8501 20.73621,0 11.50649,13.713 9.80232,-67.7137 23.04024,-5.1364 25.91007,-38.9884 14.9761,0 26.4895,74.9885 10.3613,7.2747 c 0,0 10.3613,39.4383 10.9475,42.4254 0.5658,2.9986 21.302,18.0006 21.302,18.0006 l 2.2972,28.2864 -184.27418,0"
       style="fill:#f29211;fill-opacity:1;fill-rule:nonzero;stroke:none"
       id="path13182"
       inkscape:connector-curvature="0"
       inkscape:export-filename="/home/stephane/Downloads/background_0.png"
       inkscape:export-xdpi="53.650154"
       inkscape:export-ydpi="53.650154" />
    <path
       d="m 954.93818,1885.7964 -28.95026,0 6.90525,-72.8501 20.73621,0 11.50649,13.713 9.80232,-67.7137 23.04024,-5.1364 25.91007,-38.9884 7.3892,0 9.8909,32.137 -42.63121,18.4261 -3.44922,18 3.44922,23.9864 -27.63465,32.576 -13.82414,-17.1377 -14.97615,32.1261 12.83573,30.8617"
       style="fill:#a5651d;fill-opacity:1;fill-rule:nonzero;stroke:none"
       id="path13184"
       inkscape:connector-curvature="0"
       inkscape:export-filename="/home/stephane/Downloads/background_0.png"
       inkscape:export-xdpi="53.650154"
       inkscape:export-ydpi="53.650154" />
    <path
       d="m -371.62538,2129.5045 50.83849,-54.9987 26.66668,-4.1623 14.1718,-100.8385 12.49489,0 7.49831,33.3272 16.65986,-4.1642 14.1786,19.9993 29.16158,-89.1616 23.33335,4.1615 c 0,0 -10.83164,25.8392 -6.65986,39.1773 4.16497,13.3245 15.84187,64.1616 15.84187,64.1616 l -15.01705,30.8241 54.72396,12.512 22.21542,49.1623 -266.1079,0"
       style="fill:#f29211;fill-opacity:1;fill-rule:nonzero;stroke:none"
       id="path13188"
       inkscape:connector-curvature="0"
       inkscape:export-filename="/home/stephane/Downloads/background_0.png"
       inkscape:export-xdpi="53.650154"
       inkscape:export-ydpi="53.650154" />
    <path
       d="m -291.35162,2129.5047 -79.6456,0 50.83849,-54.9986 26.66668,-4.1623 14.17179,-100.8385 12.49489,0 4.04909,18.0007 -2.11316,6.726 4.45808,17.2249 -17.23245,41.662 7.22563,29.4499 -20.91344,46.9359"
       style="fill:#d78318;fill-opacity:1;fill-rule:nonzero;stroke:none"
       id="path13190"
       inkscape:connector-curvature="0"
       inkscape:export-filename="/home/stephane/Downloads/background_0.png"
       inkscape:export-xdpi="53.650154"
       inkscape:export-ydpi="53.650154" />
    <path
       d="m -357.06598,1886.5123 9.99858,-141.6634 29.99824,0 16.66668,26.6619 14.17111,-131.6619 33.33472,-9.9987 37.49969,-75.8378 21.66941,0 38.32722,145.8358 15.00483,14.1636 c 0,0 14.9938,76.6627 15.833,82.4997 0.833,5.8392 30.8316,35.0021 30.8316,35.0021 l 3.3368,54.9987 -266.67188,0"
       style="fill:#f29211;fill-opacity:1;fill-rule:nonzero;stroke:none"
       id="path13178"
       inkscape:connector-curvature="0"
       inkscape:export-filename="/home/stephane/Downloads/background_0.png"
       inkscape:export-xdpi="53.650154"
       inkscape:export-ydpi="53.650154" />
    <path
       d="m -316.58461,1886.5123 -41.90888,0 9.99858,-141.6634 29.99824,0 16.66668,26.6619 14.1711,-131.662 33.33472,-9.9986 37.49969,-75.8378 10.69326,0 14.30744,62.4997 -61.66671,35.8385 -5.00069,34.9986 5.00069,46.662 -40.00548,63.3258 -19.99456,-33.3245 -21.66396,62.5004 18.56988,59.9994"
       style="fill:#a5651d;fill-opacity:1;fill-rule:nonzero;stroke:none"
       id="path13180"
       inkscape:connector-curvature="0"
       inkscape:transform-center-x="-11.428571"
       inkscape:transform-center-y="62.857143"
       inkscape:export-filename="/home/stephane/Downloads/background_0.png"
       inkscape:export-xdpi="53.650154"
       inkscape:export-ydpi="53.650154" />
    <path
       d="m 1088.2606,1425.0995 -147.58,100.4887 c -1.1175,0.63 -2.1925,1.375 -3.2037,2.24 -8.38,7.17 -9.3613,19.775 -2.1913,28.155 7.1688,8.38 19.7738,9.36 28.1538,2.19 1.0125,-0.865 1.915,-1.81 2.71,-2.8175 l 122.1112,-130.2562"
       style="fill:#f57f13;fill-opacity:1;fill-rule:nonzero;stroke:none"
       id="path396"
       inkscape:connector-curvature="0"
       inkscape:export-filename="/home/stephane/Downloads/background_0.png"
       inkscape:export-xdpi="53.650154"
       inkscape:export-ydpi="53.650154" />
    <path
       d="m 1071.3419,1439.5757 -129.355,88.1513 c -0.9763,0.5487 -1.915,1.2012 -2.7988,1.9562 -7.3212,6.265 -8.1775,17.2775 -1.915,24.5975 6.265,7.3213 17.2775,8.1788 24.5988,1.915 0.8837,-0.7562 1.6725,-1.5825 2.3662,-2.4625 l 107.1038,-114.1575"
       style="fill:#f9ad0c;fill-opacity:1;fill-rule:nonzero;stroke:none"
       id="path398"
       inkscape:connector-curvature="0"
       inkscape:export-filename="/home/stephane/Downloads/background_0.png"
       inkscape:export-xdpi="53.650154"
       inkscape:export-ydpi="53.650154" />
    <path
       d="m 1041.2806,1465.2957 -97.775,66.5413 c -0.7387,0.4162 -1.4475,0.9075 -2.115,1.4787 -5.5625,4.7588 -6.2137,13.1263 -1.455,18.6875 4.7588,5.5638 13.1263,6.215 18.6888,1.455 0.6675,-0.5712 1.2625,-1.1962 1.7875,-1.86 l 80.8687,-86.3025"
       style="fill:#fbd351;fill-opacity:1;fill-rule:nonzero;stroke:none"
       id="path400"
       inkscape:connector-curvature="0"
       inkscape:export-filename="/home/stephane/Downloads/background_0.png"
       inkscape:export-xdpi="53.650154"
       inkscape:export-ydpi="53.650154" />
    <path
       d="m 958.6469,1535.9945 c 3.6275,4.2412 3.1312,10.62 -1.1088,14.2487 -4.24,3.6275 -10.62,3.1313 -14.2475,-1.1087 -3.6275,-4.2413 -3.1312,-10.62 1.1088,-14.2475 4.24,-3.6288 10.62,-3.1325 14.2475,1.1075"
       style="fill:#ffffff;fill-opacity:1;fill-rule:nonzero;stroke:none"
       id="path402"
       inkscape:connector-curvature="0"
       inkscape:export-filename="/home/stephane/Downloads/background_0.png"
       inkscape:export-xdpi="53.650154"
       inkscape:export-ydpi="53.650154" />
    <path
       d="m 1041.3856,1539.8107 c 2.635,3.08 2.275,7.7113 -0.8037,10.345 -3.08,2.635 -7.7113,2.275 -10.345,-0.805 -2.635,-3.0787 -2.275,-7.7112 0.805,-10.345 3.0787,-2.6337 7.71,-2.2737 10.3437,0.805"
       style="fill:#ffffff;fill-opacity:1;fill-rule:nonzero;stroke:none"
       id="path410"
       inkscape:connector-curvature="0"
       inkscape:export-filename="/home/stephane/Downloads/background_0.png"
       inkscape:export-xdpi="53.650154"
       inkscape:export-ydpi="53.650154" />
    <path
       d="m 949.2094,1425.0995 c -4.6088,0 -8.345,-3.7363 -8.345,-8.345 0,4.6087 -3.7375,8.345 -8.3463,8.345 4.6088,0 8.3463,3.7375 8.3463,8.3462 0,-4.6087 3.7362,-8.3462 8.345,-8.3462"
       style="fill:#ffffff;fill-opacity:1;fill-rule:nonzero;stroke:none"
       id="path412"
       inkscape:connector-curvature="0"
       inkscape:export-filename="/home/stephane/Downloads/background_0.png"
       inkscape:export-xdpi="53.650154"
       inkscape:export-ydpi="53.650154" />
    <path
       d="m 408.4587,1230.4995 c 2.07582,0.4434 3.40204,2.4835 2.95665,4.5593 l -3.99853,18.7001 c -0.44141,2.0758 -2.48541,3.4001 -4.56322,2.9568 l -30.30015,-6.478 c -2.07582,-0.4435 -3.39805,-2.4835 -2.95267,-4.5612 l 3.99456,-18.7003 c 0.44339,-2.0758 2.4874,-3.398 4.56122,-2.9566 l 30.30214,6.4799"
       style="fill:#a5a9a8;fill-opacity:1;fill-rule:nonzero;stroke:none"
       id="path1166"
       inkscape:connector-curvature="0"
       inkscape:export-filename="/home/stephane/Downloads/background_0.png"
       inkscape:export-xdpi="53.650154"
       inkscape:export-ydpi="53.650154" />
    <path
       d="m 395.73538,1210.7951 -2.72798,12.7611 -12.75911,-2.7299 2.726,-12.7592 12.76109,2.728"
       style="fill:#3da2d5;fill-opacity:1;fill-rule:nonzero;stroke:none"
       id="path1168"
       inkscape:connector-curvature="0"
       inkscape:export-filename="/home/stephane/Downloads/background_0.png"
       inkscape:export-xdpi="53.650154"
       inkscape:export-ydpi="53.650154" />
    <path
       d="m 398.81133,1196.4097 -2.72799,12.7611 -12.76308,-2.7281 2.72798,-12.761 12.76309,2.728"
       style="fill:#3da2d5;fill-opacity:1;fill-rule:nonzero;stroke:none"
       id="path1170"
       inkscape:connector-curvature="0"
       inkscape:export-filename="/home/stephane/Downloads/background_0.png"
       inkscape:export-xdpi="53.650154"
       inkscape:export-ydpi="53.650154" />
    <path
       d="m 401.88727,1182.024 -2.72798,12.7611 -12.7611,-2.728 2.726,-12.7611 12.76308,2.728"
       style="fill:#3da2d5;fill-opacity:1;fill-rule:nonzero;stroke:none"
       id="path1172"
       inkscape:connector-curvature="0"
       inkscape:export-filename="/home/stephane/Downloads/background_0.png"
       inkscape:export-xdpi="53.650154"
       inkscape:export-ydpi="53.650154" />
    <path
       d="m 409.54234,1213.7439 -2.72798,12.763 -12.76309,-2.728 2.72997,-12.763 12.7611,2.728"
       style="fill:#3da2d5;fill-opacity:1;fill-rule:nonzero;stroke:none"
       id="path1174"
       inkscape:connector-curvature="0"
       inkscape:export-filename="/home/stephane/Downloads/background_0.png"
       inkscape:export-xdpi="53.650154"
       inkscape:export-ydpi="53.650154" />
    <path
       d="m 412.6163,1199.3622 -2.726,12.7592 -12.76309,-2.7279 2.72998,-12.7611 12.75911,2.7298"
       style="fill:#3da2d5;fill-opacity:1;fill-rule:nonzero;stroke:none"
       id="path1176"
       inkscape:connector-curvature="0"
       inkscape:export-filename="/home/stephane/Downloads/background_0.png"
       inkscape:export-xdpi="53.650154"
       inkscape:export-ydpi="53.650154" />
    <path
       d="m 415.69424,1184.9768 -2.73197,12.763 -12.75911,-2.728 2.726,-12.7651 12.76508,2.7301"
       style="fill:#3da2d5;fill-opacity:1;fill-rule:nonzero;stroke:none"
       id="path1178"
       inkscape:connector-curvature="0"
       inkscape:export-filename="/home/stephane/Downloads/background_0.png"
       inkscape:export-xdpi="53.650154"
       inkscape:export-ydpi="53.650154" />
    <path
       d="m 379.66571,1285.968 -2.72998,12.7611 -12.75911,-2.728 2.72799,-12.7632 12.7611,2.7301"
       style="fill:#3da2d5;fill-opacity:1;fill-rule:nonzero;stroke:none"
       id="path1180"
       inkscape:connector-curvature="0"
       inkscape:export-filename="/home/stephane/Downloads/background_0.png"
       inkscape:export-xdpi="53.650154"
       inkscape:export-ydpi="53.650154" />
    <path
       d="m 382.73966,1271.5804 -2.72798,12.7651 -12.75912,-2.7301 2.728,-12.7611 12.7591,2.7261"
       style="fill:#3da2d5;fill-opacity:1;fill-rule:nonzero;stroke:none"
       id="path1182"
       inkscape:connector-curvature="0"
       inkscape:export-filename="/home/stephane/Downloads/background_0.png"
       inkscape:export-xdpi="53.650154"
       inkscape:export-ydpi="53.650154" />
    <path
       d="m 385.81561,1257.1948 -2.726,12.765 -12.76309,-2.7279 2.72799,-12.763 12.7611,2.7259"
       style="fill:#3da2d5;fill-opacity:1;fill-rule:nonzero;stroke:none"
       id="path1184"
       inkscape:connector-curvature="0"
       inkscape:export-filename="/home/stephane/Downloads/background_0.png"
       inkscape:export-xdpi="53.650154"
       inkscape:export-ydpi="53.650154" />
    <path
       d="m 393.47068,1288.9186 -2.72799,12.7631 -12.7611,-2.732 2.72998,-12.7571 12.75911,2.726"
       style="fill:#3da2d5;fill-opacity:1;fill-rule:nonzero;stroke:none"
       id="path1186"
       inkscape:connector-curvature="0"
       inkscape:export-filename="/home/stephane/Downloads/background_0.png"
       inkscape:export-xdpi="53.650154"
       inkscape:export-ydpi="53.650154" />
    <path
       d="m 396.54662,1274.5351 -2.72799,12.7611 -12.76308,-2.728 2.72998,-12.7611 12.76109,2.728"
       style="fill:#3da2d5;fill-opacity:1;fill-rule:nonzero;stroke:none"
       id="path1188"
       inkscape:connector-curvature="0"
       inkscape:export-filename="/home/stephane/Downloads/background_0.png"
       inkscape:export-xdpi="53.650154"
       inkscape:export-ydpi="53.650154" />
    <path
       d="m 399.62257,1260.1475 -2.72998,12.763 -12.76109,-2.7299 2.72798,-12.7611 12.76309,2.728"
       style="fill:#3da2d5;fill-opacity:1;fill-rule:nonzero;stroke:none"
       id="path1190"
       inkscape:connector-curvature="0"
       inkscape:export-filename="/home/stephane/Downloads/background_0.png"
       inkscape:export-xdpi="53.650154"
       inkscape:export-ydpi="53.650154" />
    <path
       d="m 355.73815,1248.0863 c 7.92548,1.5629 15.67003,-3.5094 17.36408,-11.4368 1.69803,-7.9335 -3.29665,-15.7277 -11.17043,-17.5411 l -6.19365,28.9779"
       style="fill:#a5a9a8;fill-opacity:1;fill-rule:nonzero;stroke:none"
       id="path1192"
       inkscape:connector-curvature="0"
       inkscape:export-filename="/home/stephane/Downloads/background_0.png"
       inkscape:export-xdpi="53.650154"
       inkscape:export-ydpi="53.650154" />
  </g>
</svg>
