<?xml version="1.0" encoding="UTF-8" standalone="no"?>
<!-- Created with Inkscape (http://www.inkscape.org/) -->

<svg
   xmlns:dc="http://purl.org/dc/elements/1.1/"
   xmlns:cc="http://creativecommons.org/ns#"
   xmlns:rdf="http://www.w3.org/1999/02/22-rdf-syntax-ns#"
   xmlns:svg="http://www.w3.org/2000/svg"
   xmlns="http://www.w3.org/2000/svg"
   xmlns:sodipodi="http://sodipodi.sourceforge.net/DTD/sodipodi-0.dtd"
   xmlns:inkscape="http://www.inkscape.org/namespaces/inkscape"
   width="210mm"
   height="297mm"
   viewBox="0 0 744.09448819 1052.3622047"
   id="svg3761"
   version="1.1"
   inkscape:version="0.91 r13725"
   sodipodi:docname="drawing-1.svg"
   inkscape:export-filename="/home/stephane/Downloads/bell_explosion_1.png"
   inkscape:export-xdpi="186.55"
   inkscape:export-ydpi="186.55">
  <defs
     id="defs3763" />
  <sodipodi:namedview
     id="base"
     pagecolor="#ffffff"
     bordercolor="#666666"
     borderopacity="1.0"
     inkscape:pageopacity="0.0"
     inkscape:pageshadow="2"
     inkscape:zoom="3.9457355"
     inkscape:cx="335.21734"
     inkscape:cy="617.77755"
     inkscape:document-units="px"
     inkscape:current-layer="layer1"
     showgrid="false"
     inkscape:window-width="1280"
     inkscape:window-height="996"
     inkscape:window-x="1920"
     inkscape:window-y="0"
     inkscape:window-maximized="1" />
  <metadata
     id="metadata3766">
    <rdf:RDF>
      <cc:Work
         rdf:about="">
        <dc:format>image/svg+xml</dc:format>
        <dc:type
           rdf:resource="http://purl.org/dc/dcmitype/StillImage" />
        <dc:title />
      </cc:Work>
    </rdf:RDF>
  </metadata>
  <g
     inkscape:label="Layer 1"
     inkscape:groupmode="layer"
     id="layer1">
    <path
       d="m 366.68716,396.41986 13.02875,-2.47625 10.38375,8.24125 7.35625,21.615 -13.3525,23.85625 -10.8525,3.03625 -14.0425,5.4925 -12.6225,-5.88875 -12.3875,-0.185 -15.81,-12.42875 -1.35125,-20.84375 13.96125,-11.31 16.02125,-12.98375 19.6675,3.875"
       style="fill:#b0b2af;fill-opacity:1;fill-rule:nonzero;stroke:none"
       id="path214"
       inkscape:connector-curvature="0"
       inkscape:export-xdpi="223.83"
       inkscape:export-ydpi="223.83" />
    <path
       d="m 379.71591,393.94361 -3.48875,3.42875 9.54625,9.2575 4.6275,16.5675 -14.17375,16.21 -8.38875,4.0275 -4.91625,-4.69125 -5.67625,5.12125 -23.0475,6.24625 12.3875,0.185 12.6225,5.88875 14.0425,-5.4925 10.8525,-3.03625 13.3525,-23.85625 -7.35625,-21.615 -10.38375,-8.24125"
       style="fill:#9c9e9c;fill-opacity:1;fill-rule:nonzero;stroke:none"
       id="path216"
       inkscape:connector-curvature="0"
       inkscape:export-xdpi="223.83"
       inkscape:export-ydpi="223.83" />
    <path
       d="m 374.02189,407.11736 7.12277,3.82404 0,5.15982 -5.51533,3.65293 -7.12078,-1.29553 -1.38007,-7.51722 6.89341,-3.82404"
       style="fill:#9c9e9c;fill-opacity:1;fill-rule:nonzero;stroke:none"
       id="path218"
       inkscape:connector-curvature="0"
       inkscape:export-xdpi="223.83"
       inkscape:export-ydpi="223.83" />
    <path
       d="m 334.19841,435.61367 3.63207,6.73232 6.70428,-4.5093 0.77883,-8.86046 -6.5473,-3.91137 -4.56788,10.54881"
       style="fill:#9c9e9c;fill-opacity:1;fill-rule:nonzero;stroke:none"
       id="path220"
       inkscape:connector-curvature="0"
       inkscape:export-xdpi="223.83"
       inkscape:export-ydpi="223.83" />
    <path
       d="m 352.0501,405.41503 0,0 c 0.37008,-0.1722 0.77839,-0.33055 1.19867,-0.46401 -0.42028,0.13346 -0.82859,0.29181 -1.19867,0.46401 m 1.20803,-0.46651 c 0.0182,-0.006 0.0457,-0.0145 0.0641,-0.02 -0.0184,0.006 -0.0459,0.014 -0.0641,0.02 m 0.073,-0.0235 c 0.0187,-0.005 0.0275,-0.009 0.0369,-0.011 -0.009,0.002 -0.0182,0.006 -0.0369,0.011 m 0.0556,-0.016 c -2.8e-4,-8.9e-4 0.009,-0.004 0.009,-0.004 0,0 -0.009,0.002 -0.009,0.004 m 0.0364,-0.012 c 0.009,-0.002 0.009,-0.002 0.0186,-0.005 -0.009,0.002 -0.009,0.002 -0.0186,0.005 m 0.0369,-0.011 c 0.009,-0.002 0.009,-0.002 0.0186,-0.005 -0.009,0.002 -0.009,0.002 -0.0186,0.005 m 0.0463,-0.013 c 0,0 0.009,-0.002 0.009,-0.002 0,0 -0.009,0.002 -0.009,0.002 m 0.0369,-0.011 c 0,0 0.009,-0.002 0.009,-0.002 0,0 -0.009,0.002 -0.009,0.002 m 0.0369,-0.011 c 0.009,-0.002 0.009,-0.002 0.0187,-0.005 -0.009,0.002 -0.009,0.002 -0.0187,0.005 m 0.0467,-0.0125 c 0,0 0.009,-0.002 0.009,-0.002 0,0 -0.009,0.002 -0.009,0.002 m 0.0374,-0.01 c -2.8e-4,-8.9e-4 0.009,-0.004 0.009,-0.004 0,0 -0.009,0.002 -0.009,0.004 m 0.0462,-0.0135 c 0,0 0,0 0.009,-0.002 -0.009,0.002 -0.009,0.002 -0.009,0.002"
       style="fill:#d0b2ad;fill-opacity:1;fill-rule:nonzero;stroke:none"
       id="path8664"
       inkscape:connector-curvature="0"
       inkscape:export-xdpi="223.83"
       inkscape:export-ydpi="223.83" />
    <path
       d="m 353.24877,404.95102 c 0.009,-0.002 0.009,-0.002 0.009,-0.002 0,0 0,0 -0.009,0.002 m 0.0734,-0.0225 c 0.009,-0.002 0.009,-0.004 0.009,-0.004 0,0 2.8e-4,8.9e-4 -0.009,0.004 m 0.0457,-0.0145 c 0.009,-0.002 0.009,-0.002 0.0187,-0.005 -0.009,0.002 -0.009,0.002 -0.0187,0.005 m 0.0275,-0.009 c 0.009,-0.002 0.0182,-0.006 0.0276,-0.009 -0.009,0.002 -0.0182,0.006 -0.0276,0.009 m 0.0462,-0.0135 c 0.009,-0.004 0.009,-0.004 0.0182,-0.006 -0.009,0.002 -0.009,0.002 -0.0182,0.006 m 0.0369,-0.011 c 0.009,-0.003 0.0184,-0.006 0.0277,-0.008 -0.009,0.002 -0.0186,0.005 -0.0277,0.008 m 0.0371,-0.0106 c 0.009,-0.002 0.0182,-0.006 0.0276,-0.009 -0.009,0.002 -0.0182,0.006 -0.0276,0.009 m 0.0369,-0.011 c 0.009,-0.002 0.0186,-0.005 0.0276,-0.009 -0.009,0.004 -0.0181,0.006 -0.0276,0.009 m 0.0462,-0.0135 c 0.009,-0.002 0.0186,-0.005 0.028,-0.007 -0.009,0.002 -0.0187,0.005 -0.028,0.007 m 0.0374,-0.01 c 0.009,-0.002 0.0186,-0.005 0.028,-0.007 -0.009,0.002 -0.0187,0.005 -0.028,0.007 m 0.0369,-0.011 c 0.009,-0.002 0.0186,-0.005 0.0374,-0.01 -0.0187,0.005 -0.0281,0.007 -0.0374,0.01 m 0.0466,-0.0124 c 0.009,-0.002 0.0187,-0.005 0.0281,-0.007 -0.009,0.002 -0.0187,0.005 -0.0281,0.007"
       style="fill:#f9fafa;fill-opacity:1;fill-rule:nonzero;stroke:none"
       id="path8666"
       inkscape:connector-curvature="0"
       inkscape:export-xdpi="223.83"
       inkscape:export-ydpi="223.83" />
    <path
       d="m 340.40927,406.87872 c -2.24748,0.2755 -4.23079,0.3038 -5.06432,-0.23924 -2.07026,-1.34607 -0.0421,-2.78662 -0.0421,-2.78662 l 12.05933,-1.94429 7.49587,-5.54467 c 0,0 0.53624,-0.20299 1.31719,-0.29872 1.13173,-0.13873 2.8306,-0.0608 4.28596,1.15746 2.48264,2.05939 -8.26238,7.06785 -11.13194,7.8407 -1.68982,0.45995 -5.60485,1.41057 -8.92,1.81538"
       style="fill:#9c9e9c;fill-opacity:1;fill-rule:nonzero;stroke:none"
       id="path8452-9"
       inkscape:connector-curvature="0"
       inkscape:export-xdpi="223.83"
       inkscape:export-ydpi="223.83" />
    <path
       d="m 358.84431,397.12305 c 1.18057,1.43962 -3.13469,4.37262 -9.62979,6.54916 -6.51125,2.17852 -12.72838,2.77775 -13.90894,1.33813 -1.18056,-1.43963 3.13483,-4.37342 9.62994,-6.54996 6.49542,-2.17736 12.72809,-2.77617 13.90879,-1.33733"
       style="fill:#ffffff;fill-opacity:1;fill-rule:nonzero;stroke:none"
       id="path8454-1"
       inkscape:connector-curvature="0"
       inkscape:export-xdpi="223.83"
       inkscape:export-ydpi="223.83" />
    <path
       d="m 356.02393,397.63162 c 0.92763,1.12477 -2.44259,3.41613 -7.52574,5.1187 -5.06699,1.70059 -9.93582,2.1679 -10.86346,1.04315 -0.92777,-1.12397 2.44273,-3.41692 7.52559,-5.11791 5.08297,-1.70255 9.95194,-2.17144 10.86361,-1.04394"
       style="fill:#6a6c6c;fill-opacity:1;fill-rule:nonzero;stroke:none"
       id="path8456-2"
       inkscape:connector-curvature="0"
       inkscape:export-xdpi="223.83"
       inkscape:export-ydpi="223.83" />
    <path
       d="m 328.78267,437.13761 c -0.62163,0.71656 -1.43926,1.11682 -2.47654,0.68657 -2.57298,-1.0657 -3.50192,-2.99776 -3.50192,-2.99776 l 2.75425,-4.34638 -3.70904,-7.37851 c 0,0 -0.0232,-0.31897 0.19287,-0.56788 0.31301,-0.36084 1.14101,-0.59356 3.28983,0.449 3.64207,1.75814 5.28376,9.16436 5.01618,10.53317 -0.15154,0.81128 -0.64635,2.56683 -1.56563,3.62179"
       style="fill:#9c9e9c;fill-opacity:1;fill-rule:nonzero;stroke:none"
       id="path8452"
       inkscape:connector-curvature="0"
       inkscape:export-xdpi="223.83"
       inkscape:export-ydpi="223.83" />
    <path
       d="m 324.51241,423.1768 c 2.3074,1.33256 4.11886,5.30092 4.04735,8.85998 -0.076,3.56419 -1.99991,5.37014 -4.3073,4.03758 -2.30742,-1.33255 -4.11979,-5.3018 -4.04828,-8.86086 0.0706,-3.55998 2.00177,-5.36836 4.30823,-4.0367"
       style="fill:#ffffff;fill-opacity:1;fill-rule:nonzero;stroke:none"
       id="path8454"
       inkscape:connector-curvature="0"
       inkscape:export-xdpi="223.83"
       inkscape:export-ydpi="223.83" />
    <path
       d="m 323.93558,424.25141 c 1.80503,1.04012 3.22064,4.14015 3.16366,6.92464 -0.0525,2.77933 -1.56166,4.1915 -3.36669,3.15138 -1.80407,-1.03924 -3.22155,-4.14106 -3.1627,-6.92376 0.0569,-2.78443 1.56417,-4.19831 3.36573,-3.15226"
       style="fill:#6a6c6c;fill-opacity:1;fill-rule:nonzero;stroke:none"
       id="path8456"
       inkscape:connector-curvature="0"
       inkscape:export-xdpi="223.83"
       inkscape:export-ydpi="223.83" />
    <path
       d="m 334.9771,416.51671 c -0.45385,0 -0.90494,-0.0269 -1.32839,-0.0836 -3.04458,-0.39873 -3.77114,-2.12606 -1.63229,-3.85828 1.8335,-1.48839 5.18987,-2.49645 8.01767,-2.49645 0.4655,0 0.91661,0.0269 1.33994,0.0836 3.03302,0.39873 3.77114,2.12607 1.63241,3.85828 -1.8335,1.4884 -5.18999,2.49645 -8.02934,2.49645"
       style="fill:#9c9e9c;fill-opacity:1;fill-rule:nonzero;stroke:none"
       id="path8516"
       inkscape:connector-curvature="0"
       inkscape:export-xdpi="223.83"
       inkscape:export-ydpi="223.83" />
    <path
       d="m 360.14029,454.28856 c -0.13941,0 -0.22426,-0.0128 -0.22426,-0.0128 l -1.35419,-3.14071 -4.45766,-0.66515 c 0,0 -0.93983,-0.60469 0.83182,-1.97898 0.46708,-0.36007 1.08081,-0.49933 1.74,-0.49933 1.86333,0 4.12588,1.1196 4.54617,1.60151 0.58374,0.64958 2.18136,2.80539 1.01021,3.83884 -0.8433,0.75403 -1.69914,0.85665 -2.09209,0.85665"
       style="fill:#9c9e9c;fill-opacity:1;fill-rule:nonzero;stroke:none"
       id="path8486"
       inkscape:connector-curvature="0"
       inkscape:export-xdpi="223.83"
       inkscape:export-ydpi="223.83" />
    <path
       d="m 354.82151,449.02137 c 1.22224,-0.79067 3.57668,-0.33258 5.24599,1.02338 1.66986,1.35414 2.02823,3.09307 0.80569,3.88466 -1.22194,0.78976 -3.57668,0.33258 -5.24598,-1.02338 -1.6693,-1.35597 -2.02765,-3.09491 -0.8057,-3.88466"
       style="fill:#ffffff;fill-opacity:1;fill-rule:nonzero;stroke:none"
       id="path8488"
       inkscape:connector-curvature="0"
       inkscape:export-xdpi="223.83"
       inkscape:export-ydpi="223.83" />
    <path
       d="m 355.18204,449.73599 c 0.95318,-0.61842 2.79366,-0.26019 4.09875,0.79984 1.3051,1.06004 1.59231,2.41692 0.62654,3.03535 -0.95319,0.61843 -2.79396,0.26112 -4.09877,-0.79984 -1.30566,-1.0582 -1.57972,-2.41691 -0.62652,-3.03535"
       style="fill:#6a6c6c;fill-opacity:1;fill-rule:nonzero;stroke:none"
       id="path8490"
       inkscape:connector-curvature="0"
       inkscape:export-xdpi="223.83"
       inkscape:export-ydpi="223.83" />
    <path
       d="m 357.74677,438.39084 c -0.0103,-0.002 -0.0198,-0.006 -0.0198,-0.006 -2.70874,-0.67096 -10.92676,-3.25376 -10.53813,-6.59252 0.37922,-3.34258 3.38525,-4.2108 3.38525,-4.2108 l 9.81713,4.80857 11.42246,-3.5178 c 0,0 0.13486,0.008 0.34884,0.0593 0.83538,0.20017 2.85142,1.07724 2.03965,4.81492 -1.01099,4.6609 -13.69437,5.30538 -16.45526,4.64383"
       style="fill:#9c9e9c;fill-opacity:1;fill-rule:nonzero;stroke:none"
       id="path8470"
       inkscape:connector-curvature="0"
       inkscape:export-xdpi="223.83"
       inkscape:export-ydpi="223.83" />
    <path
       d="m 373.32461,432.55959 c -1.04465,2.91499 -7.30055,4.55237 -13.97326,3.65864 -6.6719,-0.89511 -11.23851,-3.9828 -10.19387,-6.89778 1.04466,-2.91498 7.30086,-4.55307 13.97358,-3.65935 6.67189,0.89511 11.2378,3.98419 10.19355,6.89849"
       style="fill:#ffffff;fill-opacity:1;fill-rule:nonzero;stroke:none"
       id="path8472"
       inkscape:connector-curvature="0"
       inkscape:export-xdpi="223.83"
       inkscape:export-ydpi="223.83" />
    <path
       d="m 370.97427,431.52033 c -0.81782,2.27828 -5.70896,3.55785 -10.91569,2.86061 -5.21776,-0.69833 -8.78747,-3.11328 -7.96976,-5.39157 0.81742,-2.27759 5.70906,-3.55784 10.92642,-2.85882 5.20633,0.69793 8.77644,3.11219 7.95903,5.38978"
       style="fill:#6a6c6c;fill-opacity:1;fill-rule:nonzero;stroke:none"
       id="path8474"
       inkscape:connector-curvature="0"
       inkscape:export-xdpi="223.83"
       inkscape:export-ydpi="223.83" />
    <path
       d="m 355.37023,417.28903 3.17338,2.39445 0,1.41666 -3.68762,1.00292 -4.76106,-0.3557 -0.92273,-2.06388 5.83134,-3.0056"
       style="fill:#9c9e9c;fill-opacity:1;fill-rule:nonzero;stroke:none"
       id="path218-3"
       inkscape:connector-curvature="0"
       sodipodi:nodetypes="ccccccc"
       inkscape:export-xdpi="223.83"
       inkscape:export-ydpi="223.83" />
  </g>
</svg>
