<?xml version="1.0" encoding="UTF-8" standalone="no"?>
<!-- Created with Inkscape (http://www.inkscape.org/) -->

<svg
   xmlns:dc="http://purl.org/dc/elements/1.1/"
   xmlns:cc="http://creativecommons.org/ns#"
   xmlns:rdf="http://www.w3.org/1999/02/22-rdf-syntax-ns#"
   xmlns:svg="http://www.w3.org/2000/svg"
   xmlns="http://www.w3.org/2000/svg"
   xmlns:sodipodi="http://sodipodi.sourceforge.net/DTD/sodipodi-0.dtd"
   xmlns:inkscape="http://www.inkscape.org/namespaces/inkscape"
   width="210mm"
   height="297mm"
   viewBox="0 0 744.09448819 1052.3622047"
   id="svg4952"
   version="1.1"
   inkscape:version="0.91 r13725"
   sodipodi:docname="drawing-2.svg"
   inkscape:export-filename="/home/stephane/Downloads/drawing-2.png"
   inkscape:export-xdpi="223.83"
   inkscape:export-ydpi="223.83">
  <defs
     id="defs4954">
    <clipPath
       clipPathUnits="userSpaceOnUse"
       id="clipPath8430">
      <path
         d="m 10120.6,8084.34 c -20.7,0 -30.5,13.26 -30.5,13.26 l 23.1,101.94 -61.8,79.59 c 0,0 -6.2,29.02 41.7,40.72 2.5,0.63 5.1,0.92 7.6,0.92 44.1,0 77.2,-93.57 77.2,-117.56 0,-25.31 -5.2,-104.49 -38.7,-115.62 -6.9,-2.33 -13.1,-3.25 -18.6,-3.25"
         id="path8432"
         inkscape:connector-curvature="0" />
    </clipPath>
  </defs>
  <sodipodi:namedview
     id="base"
     pagecolor="#ffffff"
     bordercolor="#666666"
     borderopacity="1.0"
     inkscape:pageopacity="0.0"
     inkscape:pageshadow="2"
     inkscape:zoom="0.97568254"
     inkscape:cx="372.04724"
     inkscape:cy="719.26544"
     inkscape:document-units="px"
     inkscape:current-layer="layer1"
     showgrid="false"
     inkscape:window-width="1280"
     inkscape:window-height="996"
     inkscape:window-x="1920"
     inkscape:window-y="0"
     inkscape:window-maximized="1" />
  <metadata
     id="metadata4957">
    <rdf:RDF>
      <cc:Work
         rdf:about="">
        <dc:format>image/svg+xml</dc:format>
        <dc:type
           rdf:resource="http://purl.org/dc/dcmitype/StillImage" />
        <dc:title />
      </cc:Work>
    </rdf:RDF>
  </metadata>
  <g
     inkscape:label="Layer 1"
     inkscape:groupmode="layer"
     id="layer1">
    <path
       d="m 158.55589,279.66309 7.67161,5.91661 10.38375,8.24125 1.28482,23.75786 -7.28107,21.71339 -10.8525,3.03625 -14.0425,5.4925 -12.6225,-5.88875 -12.3875,-0.185 -21.524286,-7.07161 -5.815535,-28.16518 9.318391,-18.27428 30.84268,-4.05518 20.56036,-4.33929"
       style="fill:#b0b2af;fill-opacity:1;fill-rule:nonzero;stroke:none"
       id="path214"
       inkscape:connector-curvature="0"
       inkscape:export-xdpi="212.95"
       inkscape:export-ydpi="212.95"
       sodipodi:nodetypes="cccccccccccccc" />
    <path
       d="m 158.54892,279.68684 0.038,-0.009 12.44804,19.12356 1.59179,16.03179 -9.88804,16.21 -8.38875,4.0275 0.008,-0.0193 -10.60074,0.44929 -23.0475,6.24625 24.99209,6.068 0.0183,0.006 14.0425,-5.4925 10.8525,-3.03625 7.28108,-21.7134 -1.28483,-23.75785 -18.01767,-14.1341"
       style="fill:#9c9e9c;fill-opacity:1;fill-rule:nonzero;stroke:none"
       id="path216"
       inkscape:connector-curvature="0"
       inkscape:export-xdpi="212.95"
       inkscape:export-ydpi="212.95"
       sodipodi:nodetypes="cccccccccccccccc" />
    <path
       d="m 159.79082,303.09519 6.82464,-2.27982 1.60714,8.79268 -8.55089,6.52982 -8.965,-2.2525 c -5.96685,-4.9553 -4.19877,-9.05116 -1.7375,-13.07 l 6.89304,-1.47017"
       style="fill:#9c9e9c;fill-opacity:1;fill-rule:nonzero;stroke:none"
       id="path218"
       inkscape:connector-curvature="0"
       inkscape:export-xdpi="212.95"
       inkscape:export-ydpi="212.95"
       sodipodi:nodetypes="ccccccc" />
    <path
       d="m 119.10286,323.45933 7.55567,7.04841 13.94666,-4.72102 1.62017,-9.27646 -13.6201,-4.09502 -9.5024,11.04409"
       style="fill:#9c9e9c;fill-opacity:1;fill-rule:nonzero;stroke:none"
       id="path220"
       inkscape:connector-curvature="0"
       inkscape:export-xdpi="212.95"
       inkscape:export-ydpi="212.95" />
    <path
       d="m 108.02874,304.2138 c -0.31776,0 -0.60014,-0.0361 -0.8682,-0.1192 -1.20452,-0.37927 -1.71766,-0.94186 -1.9319,-1.44213 0.42469,-0.59148 0.84663,-1.17394 1.29322,-1.75729 l 7.21386,-3.49742 2.29163,-6.55869 c 0,0 0.87443,-0.86419 2.62232,-0.86419 0.70893,0 1.5814,0.14539 2.59352,0.55446 3.48307,1.40601 -1.8584,8.10557 -3.66338,9.37613 -1.63257,1.14593 -6.64194,4.30833 -9.55107,4.30833"
       style="fill:#9c9e9c;fill-opacity:1;fill-rule:nonzero;stroke:none"
       id="path8504"
       inkscape:connector-curvature="0"
       inkscape:export-xdpi="212.95"
       inkscape:export-ydpi="212.95" />
    <path
       d="m 119.829,290.75781 c 1.97817,1.08995 0.48482,4.6271 -3.33544,7.89877 -3.82067,3.27256 -8.52798,5.04249 -10.50559,3.95073 -1.97832,-1.08904 -0.48509,-4.6262 3.33529,-7.89787 3.82054,-3.27256 8.52796,-5.04249 10.50574,-3.95163"
       style="fill:#ffffff;fill-opacity:1;fill-rule:nonzero;stroke:none"
       id="path8506"
       inkscape:connector-curvature="0"
       inkscape:export-xdpi="212.95"
       inkscape:export-ydpi="212.95" />
    <path
       d="m 117.86967,291.7728 c 1.54958,0.85156 0.38939,3.61662 -2.60196,6.17309 -2.99205,2.55918 -6.66469,3.94172 -8.21427,3.09016 -1.54931,-0.85246 -0.37685,-3.61752 2.60251,-6.1749 2.99177,-2.55827 6.66413,-3.9399 8.21372,-3.08835"
       style="fill:#6a6c6c;fill-opacity:1;fill-rule:nonzero;stroke:none"
       id="path8508"
       inkscape:connector-curvature="0"
       inkscape:export-xdpi="212.95"
       inkscape:export-ydpi="212.95" />
    <path
       d="m 143.6885,343.60652 c -0.38311,0 -1.192,-0.15899 -1.29717,-1.4819 -0.1338,-1.74113 4.83345,-3.25593 5.98425,-3.29509 0.12607,-0.005 0.28973,-0.009 0.48133,-0.009 1.43697,0 4.23263,0.17937 4.43626,1.24928 0.23185,1.21088 -0.85517,1.81869 -0.85517,1.81869 l -4.42775,-0.68848 -4.11624,2.39046 c 0,0 -0.0809,0.0156 -0.20551,0.0156"
       style="fill:#9c9e9c;fill-opacity:1;fill-rule:nonzero;stroke:none"
       id="path8496"
       inkscape:connector-curvature="0"
       inkscape:export-xdpi="212.95"
       inkscape:export-ydpi="212.95" />
    <path
       d="m 142.87601,342.45202 c 0.0806,-1.12786 2.36764,-2.33719 5.10167,-2.69904 2.74397,-0.36343 4.90096,0.25689 4.82038,1.38476 -0.0804,1.12709 -2.3673,2.33563 -5.10124,2.69749 -2.74397,0.36342 -4.90126,-0.25613 -4.82081,-1.38321"
       style="fill:#ffffff;fill-opacity:1;fill-rule:nonzero;stroke:none"
       id="path8498"
       inkscape:connector-curvature="0"
       inkscape:export-xdpi="212.95"
       inkscape:export-ydpi="212.95" />
    <path
       d="m 143.92378,342.57813 c 0.0607,-0.88194 1.84395,-1.82652 3.99112,-2.11006 2.13744,-0.28275 3.82426,0.20129 3.76391,1.08166 -0.0604,0.88036 -1.84373,1.82573 -3.99112,2.11005 -2.13744,0.28275 -3.82427,-0.20129 -3.76391,-1.08165"
       style="fill:#6a6c6c;fill-opacity:1;fill-rule:nonzero;stroke:none"
       id="path8500"
       inkscape:connector-curvature="0"
       inkscape:export-xdpi="212.95"
       inkscape:export-ydpi="212.95" />
    <path
       d="m 173.40951,300.25501 c -1.10743,0.98792 -3.06384,0.22413 -4.36884,-1.70665 -1.30536,-1.92956 -1.47297,-4.29279 -0.36588,-5.2795 1.09647,-0.98792 3.05298,-0.22414 4.35824,1.70542 1.31645,1.92835 1.47271,4.29402 0.37648,5.28073"
       style="fill:#ffffff;fill-opacity:1;fill-rule:nonzero;stroke:none"
       id="path8492"
       inkscape:connector-curvature="0"
       inkscape:export-xdpi="212.95"
       inkscape:export-ydpi="212.95" />
    <path
       d="m 173.15995,299.27073 c -0.86644,0.76989 -2.38653,0.1742 -3.4161,-1.33388 -1.01859,-1.50808 -1.14798,-3.35725 -0.28129,-4.12835 0.85607,-0.7723 2.38664,-0.17419 3.40524,1.33389 1.02957,1.50807 1.15895,3.35725 0.29215,4.12834"
       style="fill:#6a6c6c;fill-opacity:1;fill-rule:nonzero;stroke:none"
       id="path8494"
       inkscape:connector-curvature="0"
       inkscape:export-xdpi="212.95"
       inkscape:export-ydpi="212.95" />
    <path
       d="m 172.23958,300.68622 c -1.03893,0 -2.28104,-0.78083 -3.19891,-2.13786 -0.53075,-0.78327 -0.87198,-1.63841 -1.01551,-2.44363 0.0345,-0.008 0.08,-0.0171 0.11473,-0.0268 0.0713,0.0804 0.15347,0.16079 0.22473,0.24119 0.36945,0.39102 0.72904,0.77597 1.10095,1.15482 0.0885,0.15713 0.1778,0.31063 0.27828,0.46289 0.47984,0.7102 1.07744,1.21694 1.65933,1.47642 0.43034,0.41417 0.85143,0.81982 1.28473,1.21937 -0.14961,0.0365 -0.29515,0.0536 -0.44833,0.0536"
       style="fill:#ffffff;fill-opacity:1;fill-rule:nonzero;stroke:none"
       id="path8608"
       inkscape:connector-curvature="0"
       inkscape:export-xdpi="212.95"
       inkscape:export-ydpi="212.95" />
    <path
       d="m 171.40318,299.41326 c -0.58189,-0.25947 -1.17949,-0.76622 -1.65933,-1.47641 -0.10048,-0.15227 -0.18974,-0.30577 -0.27827,-0.4629 0.64275,0.66146 1.28833,1.30951 1.9376,1.93931"
       style="fill:#7a7b7b;fill-opacity:1;fill-rule:nonzero;stroke:none"
       id="path8610"
       inkscape:connector-curvature="0"
       inkscape:export-xdpi="212.95"
       inkscape:export-ydpi="212.95" />
    <path
       d="m 172.68791,300.63264 c -0.4333,-0.39956 -0.85439,-0.80521 -1.28473,-1.21938 0.29137,0.1279 0.57336,0.19369 0.84672,0.19369 0.0657,0 0.132,-0.004 0.19939,-0.0122 0.36867,0.17786 0.76715,0.31672 1.18569,0.41052 -0.0727,0.0889 -0.14463,0.17419 -0.22547,0.24972 -0.2134,0.19003 -0.45751,0.31551 -0.7216,0.37763 m -3.22234,-3.15868 c -0.37191,-0.37885 -0.7315,-0.7638 -1.10095,-1.15482 -0.0713,-0.0804 -0.15347,-0.16079 -0.22473,-0.24119 0.26322,-0.0573 0.52977,-0.13157 0.78782,-0.21805 0.0692,0.52381 0.25194,1.0805 0.53786,1.61406"
       style="fill:#ffffff;fill-opacity:1;fill-rule:nonzero;stroke:none"
       id="path8628"
       inkscape:connector-curvature="0"
       inkscape:export-xdpi="212.95"
       inkscape:export-ydpi="212.95" />
    <path
       d="m 116.64789,338.00696 c -0.23458,0 -0.37733,-0.0197 -0.37733,-0.0197 l -2.27861,-4.81385 -7.50054,-1.0195 c 0,0 -1.58137,-0.92681 1.39964,-3.03323 0.78592,-0.55188 1.81859,-0.76534 2.92776,-0.76534 3.13526,0 6.9423,1.71604 7.64948,2.45468 0.9822,0.99564 3.6704,4.29989 1.69981,5.8839 -1.41895,1.15572 -2.85903,1.31301 -3.52021,1.31301"
       style="fill:#9c9e9c;fill-opacity:1;fill-rule:nonzero;stroke:none"
       id="path8486"
       inkscape:connector-curvature="0"
       inkscape:export-xdpi="212.95"
       inkscape:export-ydpi="212.95" />
    <path
       d="m 107.69841,329.93379 c 2.05657,-1.21188 6.0182,-0.50975 8.827,1.56857 2.80976,2.07552 3.41274,4.74083 1.35569,5.95412 -2.05609,1.21048 -6.0182,0.50975 -8.827,-1.56857 -2.80881,-2.07832 -3.41178,-4.74364 -1.35569,-5.95412"
       style="fill:#ffffff;fill-opacity:1;fill-rule:nonzero;stroke:none"
       id="path8488"
       inkscape:connector-curvature="0"
       inkscape:export-xdpi="212.95"
       inkscape:export-ydpi="212.95" />
    <path
       d="m 108.30503,331.02912 c 1.60386,-0.94788 4.70068,-0.39881 6.89665,1.22593 2.19598,1.62475 2.67926,3.70448 1.05422,4.65236 -1.60386,0.94789 -4.70115,0.40022 -6.89665,-1.22594 -2.19695,-1.62193 -2.65809,-3.70446 -1.05422,-4.65235"
       style="fill:#6a6c6c;fill-opacity:1;fill-rule:nonzero;stroke:none"
       id="path8490"
       inkscape:connector-curvature="0"
       inkscape:export-xdpi="212.95"
       inkscape:export-ydpi="212.95" />
    <path
       d="m 105.37225,320.12301 c -1.95345,0 -4.02575,-1.00668 -5.20636,-2.65951 -1.551359,-2.16099 -0.9325,-4.6136 1.34242,-5.47147 0.54549,-0.20207 1.12993,-0.30007 1.73685,-0.30007 1.93443,0 4.02576,1.00669 5.20593,2.66071 1.5315,2.16342 0.93296,4.6124 -1.36228,5.4739 -0.54505,0.20086 -1.12864,0.29644 -1.71656,0.29644"
       style="fill:#9c9e9c;fill-opacity:1;fill-rule:nonzero;stroke:none"
       id="path8522-0"
       inkscape:connector-curvature="0"
       inkscape:export-xdpi="212.95"
       inkscape:export-ydpi="212.95" />
    <path
       d="m 145.08411,290.81949 4.00689,-0.60478 0,2.16609 -1.44952,2.66346 -5.90777,-0.9369 -1.18182,-2.44577 2.1021,-3.85644"
       style="fill:#9c9e9c;fill-opacity:1;fill-rule:nonzero;stroke:none"
       id="path218-6"
       inkscape:connector-curvature="0"
       sodipodi:nodetypes="ccccccc"
       inkscape:export-xdpi="212.95"
       inkscape:export-ydpi="212.95" />
    <g
       id="g8426"
       transform="matrix(-0.07166548,-0.01554441,-0.02514121,0.05684734,1088.9852,16.815941)"
       inkscape:export-xdpi="212.95"
       inkscape:export-ydpi="212.95">
      <g
         id="g8428"
         clip-path="url(#clipPath8430)">
        <path
           d="m 10045.2,8084.34 132.766,0 0,236.426 -132.766,0 0,-236.426 z"
           style="fill:#9c9e9c;fill-opacity:1;fill-rule:nonzero;stroke:none"
           id="path8434"
           inkscape:connector-curvature="0" />
      </g>
    </g>
    <path
       d="m 157.47958,332.32939 c -2.31153,-0.2609 -3.41425,-3.29052 -2.45053,-6.76594 0.95602,-3.47584 3.60136,-6.08313 5.91282,-5.82225 2.3041,0.25991 3.40657,3.29011 2.45079,6.76537 -0.96338,3.47487 -3.60854,6.08158 -5.91308,5.82282"
       style="fill:#ffffff;fill-opacity:1;fill-rule:nonzero;stroke:none"
       id="path8436"
       inkscape:connector-curvature="0"
       inkscape:export-xdpi="212.95"
       inkscape:export-ydpi="212.95" />
    <path
       d="m 157.73599,331.39443 c -1.96781,-0.22123 -2.90038,-2.80089 -2.08627,-5.76052 0.8141,-2.95963 3.06801,-5.17896 5.03574,-4.95774 1.96038,0.22023 2.90038,2.80089 2.08603,5.76109 -0.8141,2.95962 -3.06827,5.17952 -5.0355,4.95717"
       style="fill:#6a6c6c;fill-opacity:1;fill-rule:nonzero;stroke:none"
       id="path8438"
       inkscape:connector-curvature="0"
       inkscape:export-xdpi="212.95"
       inkscape:export-ydpi="212.95" />
    <path
       d="m 141.77661,306.38702 c -0.50511,2.02541 -3.40465,3.13829 -6.47579,2.48414 -3.07058,-0.65262 -5.15718,-2.81495 -4.65151,-4.83883 0.49228,-2.01499 3.39194,-3.12796 6.4624,-2.47525 3.08258,0.64085 5.15786,2.8164 4.6649,4.82994"
       style="fill:#ffffff;fill-opacity:1;fill-rule:nonzero;stroke:none"
       id="path8492-2"
       inkscape:connector-curvature="0"
       inkscape:export-xdpi="212.95"
       inkscape:export-ydpi="212.95" />
    <path
       d="m 140.69728,305.65762 c -0.39763,1.58166 -2.65232,2.44413 -5.06309,1.94297 -2.39797,-0.5116 -4.02863,-2.20525 -3.63168,-3.78834 0.38357,-1.57416 2.65244,-2.44424 5.0504,-1.93263 2.41078,0.50115 4.04145,2.19481 3.64437,3.778"
       style="fill:#6a6c6c;fill-opacity:1;fill-rule:nonzero;stroke:none"
       id="path8494-9"
       inkscape:connector-curvature="0"
       inkscape:export-xdpi="212.95"
       inkscape:export-ydpi="212.95" />
    <path
       d="m 141.06259,309.05226 c -1.89343,1.54164 -5.57737,1.68697 -6.52089,1.31472 -0.71197,-0.26023 -2.20465,-0.96159 -3.34642,-1.93272 0.33101,-0.31129 0.65307,-0.64121 0.96278,-0.99686 0.81205,0.65444 1.89532,1.16966 3.14276,1.43376 2.1593,0.45913 4.23692,0.0433 5.45221,-0.94618 0.17919,-0.1459 0.3358,-0.30127 0.48157,-0.47966 0.3006,-0.004 0.59971,-0.0106 0.89826,-0.0188 -0.16005,0.66769 -0.54581,1.19874 -1.07028,1.62577"
       style="fill:#a8a9a7;fill-opacity:1;fill-rule:nonzero;stroke:none"
       id="path8606"
       inkscape:connector-curvature="0"
       inkscape:export-xdpi="212.95"
       inkscape:export-ydpi="212.95" />
    <path
       d="m 140.75303,307.92498 c -1.21529,0.98949 -3.29291,1.40531 -5.45221,0.94618 -1.24744,-0.2641 -2.33071,-0.77932 -3.14276,-1.43376 0.0336,-0.0413 0.0799,-0.0929 0.11281,-0.13557 0.14767,0.0111 0.30815,0.0118 0.45583,0.023 0.74498,0.0323 1.47357,0.068 2.21168,0.0861 0.22927,0.0701 0.45648,0.13587 0.69583,0.18978 1.12944,0.24077 2.23387,0.16951 3.12212,-0.12975 0.83472,-0.003 1.65181,-0.005 2.47831,-0.0255 -0.14577,0.17839 -0.30238,0.33376 -0.48157,0.47965"
       style="fill:#ffffff;fill-opacity:1;fill-rule:nonzero;stroke:none"
       id="path8608-1"
       inkscape:connector-curvature="0"
       inkscape:export-xdpi="212.95"
       inkscape:export-ydpi="212.95" />
    <path
       d="m 138.75629,307.47085 c -0.88824,0.29926 -1.99267,0.37053 -3.1221,0.12974 -0.23936,-0.0539 -0.46656,-0.1197 -0.69584,-0.18978 1.28103,0.0377 2.55464,0.0596 3.81794,0.06"
       style="fill:#7a7b7b;fill-opacity:1;fill-rule:nonzero;stroke:none"
       id="path8610-2"
       inkscape:connector-curvature="0"
       inkscape:export-xdpi="212.95"
       inkscape:export-ydpi="212.95" />
    <path
       d="m 142.13287,307.42649 c -0.29855,0.008 -0.59766,0.0149 -0.89826,0.0188 0.25923,-0.31256 0.44439,-0.66834 0.542,-1.05831 0.0341,-0.1512 0.0501,-0.3035 0.064,-0.4601 0.14024,-0.0783 0.27991,-0.15827 0.41811,-0.24088 0.0232,0.41902 0.0115,0.91417 -0.0839,1.53118 -0.0171,0.0756 -0.0356,0.14844 -0.0419,0.20929"
       style="fill:#b1b2b1;fill-opacity:1;fill-rule:nonzero;stroke:none"
       id="path8626"
       inkscape:connector-curvature="0"
       inkscape:export-xdpi="212.95"
       inkscape:export-ydpi="212.95" />
    <path
       d="m 141.23461,307.44533 c -0.82649,0.0201 -1.64359,0.0226 -2.47832,0.0255 0.44316,-0.15184 0.82565,-0.35578 1.14541,-0.61613 0.0769,-0.0626 0.15125,-0.1296 0.22352,-0.20185 0.57353,-0.17637 1.15074,-0.41946 1.71538,-0.72591 -0.0139,0.1566 -0.0298,0.30889 -0.064,0.46009 -0.0976,0.38997 -0.28278,0.74574 -0.542,1.05831 m -6.29625,-0.0345 c -0.73811,-0.018 -1.46671,-0.0538 -2.21168,-0.0861 -0.14767,-0.0111 -0.30817,-0.0118 -0.45583,-0.023 0.26212,-0.30691 0.51446,-0.63382 0.74712,-0.96457 0.49992,0.4488 1.15908,0.82168 1.92039,1.07361"
       style="fill:#ffffff;fill-opacity:1;fill-rule:nonzero;stroke:none"
       id="path8628-7"
       inkscape:connector-curvature="0"
       inkscape:export-xdpi="212.95"
       inkscape:export-ydpi="212.95" />
  </g>
</svg>
