<?xml version="1.0" encoding="UTF-8" standalone="no"?>
<!-- Created with Inkscape (http://www.inkscape.org/) -->

<svg
   xmlns:dc="http://purl.org/dc/elements/1.1/"
   xmlns:cc="http://creativecommons.org/ns#"
   xmlns:rdf="http://www.w3.org/1999/02/22-rdf-syntax-ns#"
   xmlns:svg="http://www.w3.org/2000/svg"
   xmlns="http://www.w3.org/2000/svg"
   xmlns:sodipodi="http://sodipodi.sourceforge.net/DTD/sodipodi-0.dtd"
   xmlns:inkscape="http://www.inkscape.org/namespaces/inkscape"
   width="210mm"
   height="297mm"
   viewBox="0 0 744.09448819 1052.3622047"
   id="svg5923"
   version="1.1"
   inkscape:version="0.91 r13725"
   sodipodi:docname="drawing-3.svg">
  <defs
     id="defs5925" />
  <sodipodi:namedview
     id="base"
     pagecolor="#ffffff"
     bordercolor="#666666"
     borderopacity="1.0"
     inkscape:pageopacity="0.0"
     inkscape:pageshadow="2"
     inkscape:zoom="11.361574"
     inkscape:cx="514.89001"
     inkscape:cy="563.37052"
     inkscape:document-units="px"
     inkscape:current-layer="layer1"
     showgrid="false"
     inkscape:window-width="1280"
     inkscape:window-height="996"
     inkscape:window-x="1920"
     inkscape:window-y="0"
     inkscape:window-maximized="1" />
  <metadata
     id="metadata5928">
    <rdf:RDF>
      <cc:Work
         rdf:about="">
        <dc:format>image/svg+xml</dc:format>
        <dc:type
           rdf:resource="http://purl.org/dc/dcmitype/StillImage" />
        <dc:title />
      </cc:Work>
    </rdf:RDF>
  </metadata>
  <g
     inkscape:label="Layer 1"
     inkscape:groupmode="layer"
     id="layer1">
    <path
       d="m 519.66071,477.7631 5.46,4.7925 8.51625,1.2725 4.13,16.20625 -7.995,7.925 -5.3875,3.4175 -9.23375,1.29875 -7.33375,-3.0225 -11.57875,-0.805 -4.80875,-5.6525 -0.625,-11.03 8.2525,-6.10125 7.255,-0.9375 3.3525,-4.8775 9.99625,-2.48625"
       style="fill:#b8b9b9;fill-opacity:1;fill-rule:nonzero;stroke:none"
       id="path242"
       inkscape:connector-curvature="0"
       inkscape:export-xdpi="383.28"
       inkscape:export-ydpi="383.28" />
    <path
       d="m 519.66071,477.7631 -1.61625,2.38125 5.35125,5.81 7.7975,0 0.45875,11.9675 -4.74125,5.4625 -2.5975,-2.3125 -4.43375,2.925 -4.73875,5.50375 -7.32375,0.1525 7.33375,3.0225 8.935,-1.2575 5.68625,-3.45875 7.995,-7.925 -4.13,-16.20625 -8.865,-1.01 -5.11125,-5.055"
       style="fill:#9c9e9c;fill-opacity:1;fill-rule:nonzero;stroke:none"
       id="path244"
       inkscape:connector-curvature="0"
       inkscape:export-xdpi="383.28"
       inkscape:export-ydpi="383.28" />
    <path
       d="m 496.23821,508.8481 3.9175,0 7.66125,0.805 -8.42625,-3.51375 -4.74,-3.61875 -3.52,-4.59875 0.29875,5.27375 4.80875,5.6525"
       style="fill:#9c9e9c;fill-opacity:1;fill-rule:nonzero;stroke:none"
       id="path246"
       inkscape:connector-curvature="0"
       inkscape:export-xdpi="383.28"
       inkscape:export-ydpi="383.28" />
    <path
       d="m 500.56071,498.46435 -4.57125,2.8225 5.30875,3.45125 3.8325,0 -0.73,-2.9175 -3.84,-3.35625"
       style="fill:#9c9e9c;fill-opacity:1;fill-rule:nonzero;stroke:none"
       id="path248"
       inkscape:connector-curvature="0"
       inkscape:export-xdpi="383.28"
       inkscape:export-ydpi="383.28" />
    <path
       d="m 527.52321,489.5456 0.765,4.43375 -1.52875,2.7525 -3.35625,-1.74375 1.0625,-6.665 1.38,3.97125 -1.38,-3.97125 3.0575,1.2225"
       style="fill:#9c9e9c;fill-opacity:1;fill-rule:nonzero;stroke:none"
       id="path250"
       inkscape:connector-curvature="0"
       inkscape:export-xdpi="383.28"
       inkscape:export-ydpi="383.28" />
    <path
       d="m 495.64256,495.72103 c -0.93686,0 -1.73924,-0.20331 -2.01349,-0.81397 -0.6815,-1.51417 0.29918,-2.64229 0.29918,-2.64229 l 5.0798,-0.44112 3.64946,-4.37813 c 0,0 0.23911,-0.12991 0.56464,-0.12991 0.47176,0 1.14747,0.27083 1.59569,1.59272 0.76672,2.23713 -4.13112,5.73083 -5.37507,6.12938 -0.73308,0.23927 -2.41847,0.68478 -3.80021,0.68332"
       style="fill:#9c9e9c;fill-opacity:1;fill-rule:nonzero;stroke:none"
       id="path8452"
       inkscape:connector-curvature="0"
       inkscape:export-xdpi="383.28"
       inkscape:export-ydpi="383.28" />
    <path
       d="m 504.17762,488.62648 c 0.31237,1.49949 -1.75918,3.77481 -4.62327,5.08127 -2.87082,1.30646 -5.44395,1.15233 -5.75633,-0.34716 -0.31237,-1.4995 1.75933,-3.77555 4.62341,-5.08201 2.86432,-1.30721 5.44366,-1.15087 5.75619,0.3479"
       style="fill:#ffffff;fill-opacity:1;fill-rule:nonzero;stroke:none"
       id="path8454"
       inkscape:connector-curvature="0"
       inkscape:export-xdpi="383.28"
       inkscape:export-ydpi="383.28" />
    <path
       d="m 502.98346,488.7806 c 0.24619,1.17217 -1.37178,2.94984 -3.61315,3.97153 -2.23466,1.02169 -4.24954,0.89911 -4.49571,-0.27304 -0.24633,-1.17142 1.37193,-2.95056 3.61301,-3.97078 2.2413,-1.02169 4.25641,-0.90059 4.49585,0.27229"
       style="fill:#6a6c6c;fill-opacity:1;fill-rule:nonzero;stroke:none"
       id="path8456"
       inkscape:connector-curvature="0"
       inkscape:export-xdpi="383.28"
       inkscape:export-ydpi="383.28" />
    <path
       d="m 520.69572,484.22463 c -1.06712,0.62102 -2.89618,0.18406 -4.08443,-0.9764 -1.18864,-1.15971 -1.29393,-2.60202 -0.22717,-3.22228 1.05677,-0.62087 2.88592,-0.18391 4.07445,0.9758 1.19912,1.15879 1.29366,2.60278 0.23715,3.22288"
       style="fill:#ffffff;fill-opacity:1;fill-rule:nonzero;stroke:none"
       id="path8492"
       inkscape:connector-curvature="0"
       inkscape:export-xdpi="383.28"
       inkscape:export-ydpi="383.28" />
    <path
       d="m 520.48224,483.62668 c -0.83482,0.484 -2.25592,0.14312 -3.19373,-0.76312 -0.92746,-0.90642 -1.00818,-2.03502 -0.17309,-2.51978 0.82509,-0.48532 2.25602,-0.14313 3.18348,0.76328 0.93781,0.90624 1.01853,2.03486 0.18334,2.51962"
       style="fill:#6a6c6c;fill-opacity:1;fill-rule:nonzero;stroke:none"
       id="path8494"
       inkscape:connector-curvature="0"
       inkscape:export-xdpi="383.28"
       inkscape:export-ydpi="383.28" />
    <path
       d="m 519.26812,485.02718 c -1.52742,0.0249 -3.33286,-1.01318 -3.62793,-1.43489 -0.23109,-0.31035 -0.65194,-1.02032 -0.79623,-1.72882 0.2841,-0.0203 0.57157,-0.0503 0.86371,-0.0937 0.11743,0.4901 0.42029,1.00771 0.90362,1.47845 0.83578,0.81561 1.99041,1.27395 2.97079,1.25801 0.14455,-0.002 0.28227,-0.015 0.42426,-0.0396 0.14398,0.0879 0.28855,0.17397 0.43344,0.25941 -0.34872,0.20664 -0.74858,0.29429 -1.17167,0.30117"
       style="fill:#a8a9a7;fill-opacity:1;fill-rule:nonzero;stroke:none"
       id="path8606"
       inkscape:connector-curvature="0"
       inkscape:export-xdpi="383.28"
       inkscape:export-ydpi="383.28" />
    <path
       d="m 519.58208,484.50624 c -0.98038,0.0159 -2.13501,-0.4424 -2.97079,-1.25801 -0.48333,-0.47074 -0.78619,-0.98835 -0.90362,-1.47845 0.0328,-0.006 0.0759,-0.0117 0.10889,-0.0182 0.0654,0.0481 0.14121,0.096 0.20667,0.144 0.3399,0.23338 0.67059,0.46326 1.01308,0.68916 0.08,0.0947 0.16081,0.18721 0.25224,0.27875 0.4369,0.42684 0.98949,0.7275 1.5328,0.87718 0.39683,0.24659 0.78513,0.48812 1.18504,0.72581 -0.14199,0.0246 -0.27971,0.0373 -0.42426,0.0396"
       style="fill:#ffffff;fill-opacity:1;fill-rule:nonzero;stroke:none"
       id="path8608"
       inkscape:connector-curvature="0"
       inkscape:export-xdpi="383.28"
       inkscape:export-ydpi="383.28" />
    <path
       d="m 518.82129,483.74077 c -0.54328,-0.14971 -1.09587,-0.45036 -1.53279,-0.87718 -0.0914,-0.0916 -0.17221,-0.18404 -0.25225,-0.27875 0.59173,0.39458 1.18644,0.78087 1.78502,1.15597"
       style="fill:#7a7b7b;fill-opacity:1;fill-rule:nonzero;stroke:none"
       id="path8610"
       inkscape:connector-curvature="0"
       inkscape:export-xdpi="383.28"
       inkscape:export-ydpi="383.28" />
    <path
       d="m 520.43978,484.72601 c -0.14507,-0.0851 -0.28937,-0.17168 -0.43344,-0.25941 0.2506,-0.042 0.48376,-0.1225 0.68938,-0.24197 0.078,-0.0475 0.14772,-0.10068 0.21834,-0.15614 0.0985,0.0118 0.19735,0.0228 0.29661,0.0324 -0.16022,0.16639 -0.36815,0.35137 -0.66549,0.55793 -0.039,0.0237 -0.0775,0.046 -0.10545,0.0672"
       style="fill:#b1b2b1;fill-opacity:1;fill-rule:nonzero;stroke:none"
       id="path8626"
       inkscape:connector-curvature="0"
       inkscape:export-xdpi="383.28"
       inkscape:export-ydpi="383.28" />
    <path
       d="m 520.00635,484.46659 c -0.39992,-0.23769 -0.78822,-0.47922 -1.18506,-0.72582 0.27209,0.0737 0.53672,0.10963 0.79467,0.10542 0.062,-9.7e-4 0.12464,-0.005 0.18843,-0.0105 0.34392,0.10305 0.71682,0.18188 1.10967,0.23279 -0.0706,0.0554 -0.14036,0.10874 -0.21834,0.15615 -0.20563,0.11946 -0.43877,0.19992 -0.68938,0.24196 m -2.97006,-1.88177 c -0.34248,-0.22591 -0.67319,-0.4558 -1.01308,-0.68917 -0.0654,-0.048 -0.14122,-0.096 -0.20667,-0.144 0.24966,-0.039 0.50285,-0.0886 0.74829,-0.14541 0.0535,0.31921 0.21357,0.65676 0.47145,0.9786"
       style="fill:#ffffff;fill-opacity:1;fill-rule:nonzero;stroke:none"
       id="path8628"
       inkscape:connector-curvature="0"
       inkscape:export-xdpi="383.28"
       inkscape:export-ydpi="383.28" />
    <path
       d="m 512.64448,493.76327 c -0.003,-10e-6 -0.005,-4.1e-4 -0.005,-4.1e-4 -0.70253,-0.0102 -2.86573,-0.25979 -2.96451,-1.6317 -0.10132,-1.37253 0.58461,-2.00608 0.58461,-2.00608 l 2.68424,0.98716 2.59371,-2.49479 c 0,0 0.0335,-0.01 0.0889,-0.01 0.21627,4.3e-4 0.76108,0.15901 0.7794,1.73073 0.0231,1.95981 -3.04639,3.42595 -3.76115,3.42452"
       style="fill:#9c9e9c;fill-opacity:1;fill-rule:nonzero;stroke:none"
       id="path8470"
       inkscape:connector-curvature="0"
       inkscape:export-xdpi="383.28"
       inkscape:export-ydpi="383.28" />
    <path
       d="m 516.1217,489.94761 c -0.0865,1.26498 -1.52388,2.51569 -3.21039,2.79414 -1.68639,0.27782 -2.98445,-0.52157 -2.89791,-1.78656 0.0865,-1.26498 1.52391,-2.516 3.21041,-2.79445 1.68639,-0.27782 2.98437,0.5222 2.89789,1.78687"
       style="fill:#ffffff;fill-opacity:1;fill-rule:nonzero;stroke:none"
       id="path8472"
       inkscape:connector-curvature="0"
       inkscape:export-xdpi="383.28"
       inkscape:export-ydpi="383.28" />
    <path
       d="m 515.48556,489.75604 c -0.068,0.9888 -1.19177,1.96642 -2.50775,2.18375 -1.31875,0.21794 -2.33351,-0.40746 -2.26557,-1.39626 0.0679,-0.9885 1.1918,-1.96644 2.51048,-2.18407 1.31592,-0.21702 2.33074,0.40808 2.26284,1.39658"
       style="fill:#6a6c6c;fill-opacity:1;fill-rule:nonzero;stroke:none"
       id="path8474"
       inkscape:connector-curvature="0"
       inkscape:export-xdpi="383.28"
       inkscape:export-ydpi="383.28" />
    <path
       d="m 510.98766,499.09078 c 0.75199,-1.14937 2.82614,-3.00096 4.13237,-2.97158 1.71086,0.0338 7.15598,2.10363 3.88127,4.07045 0,0 -1.73243,1.61701 -1.96605,1.9741 -0.74468,1.13817 -2.95241,1.29633 -4.25911,1.26618 -1.70446,-0.0466 -2.73611,-1.47151 -2.2965,-3.19934 0.10633,-0.40866 0.28169,-0.7939 0.50802,-1.13981"
       style="fill:#9c9e9c;fill-opacity:1;fill-rule:nonzero;stroke:none"
       id="path8522"
       inkscape:connector-curvature="0"
       inkscape:transform-center-x="-0.36048705"
       sodipodi:nodetypes="ccccccc"
       inkscape:export-xdpi="383.28"
       inkscape:export-ydpi="383.28" />
    <path
       d="m 519.50526,510.19044 c -0.30805,0 -0.95845,-0.17008 -1.04301,-1.58529 -0.10759,-1.86263 3.88644,-3.48312 4.81176,-3.52502 0.10137,-0.006 0.23296,-0.009 0.38702,-0.009 1.15543,0 3.40334,0.19188 3.56707,1.33644 0.18643,1.29538 -0.68761,1.9456 -0.68761,1.9456 l -3.56023,-0.73652 -3.30974,2.55725 c 0,0 -0.0651,0.0168 -0.16526,0.0168"
       style="fill:#9c9e9c;fill-opacity:1;fill-rule:nonzero;stroke:none"
       id="path8496"
       inkscape:connector-curvature="0"
       inkscape:export-xdpi="383.28"
       inkscape:export-ydpi="383.28" />
    <path
       d="m 518.85197,508.95539 c 0.0648,-1.20656 1.90375,-2.50027 4.10211,-2.88738 2.20634,-0.38878 3.94071,0.27483 3.87592,1.4814 -0.0646,1.20573 -1.90348,2.4986 -4.10175,2.8857 -2.20635,0.38878 -3.94097,-0.274 -3.87628,-1.47972"
       style="fill:#ffffff;fill-opacity:1;fill-rule:nonzero;stroke:none"
       id="path8498"
       inkscape:connector-curvature="0"
       inkscape:export-xdpi="383.28"
       inkscape:export-ydpi="383.28" />
    <path
       d="m 519.69445,509.09029 c 0.0488,-0.94347 1.48266,-1.95397 3.20914,-2.25728 1.71866,-0.30248 3.07499,0.21533 3.02645,1.15713 -0.0485,0.94179 -1.48249,1.95312 -3.20914,2.25728 -1.71865,0.30248 -3.07499,-0.21534 -3.02645,-1.15713"
       style="fill:#6a6c6c;fill-opacity:1;fill-rule:nonzero;stroke:none"
       id="path8500"
       inkscape:connector-curvature="0"
       inkscape:export-xdpi="383.28"
       inkscape:export-ydpi="383.28" />
    <path
       d="m 509.10374,508.99487 c -0.0789,0 -0.1269,-0.005 -0.1269,-0.005 l -0.76636,-1.27803 -2.52265,-0.27066 c 0,0 -0.53187,-0.24606 0.47073,-0.8053 0.26433,-0.14652 0.61165,-0.20319 0.9847,-0.20319 1.05448,0 2.3349,0.45559 2.57274,0.65169 0.33034,0.26434 1.23446,1.14159 0.5717,1.56212 -0.47724,0.30684 -0.96158,0.3486 -1.18396,0.3486"
       style="fill:#9c9e9c;fill-opacity:1;fill-rule:nonzero;stroke:none"
       id="path8486"
       inkscape:connector-curvature="0"
       inkscape:export-xdpi="383.28"
       inkscape:export-ydpi="383.28" />
    <path
       d="m 506.09377,506.85153 c 0.69169,-0.32175 2.0241,-0.13534 2.96878,0.41644 0.94501,0.55102 1.14781,1.25864 0.45596,1.58076 -0.69153,0.32137 -2.0241,0.13533 -2.96878,-0.41644 -0.94468,-0.55178 -1.14748,-1.25939 -0.45596,-1.58076"
       style="fill:#ffffff;fill-opacity:1;fill-rule:nonzero;stroke:none"
       id="path8488"
       inkscape:connector-curvature="0"
       inkscape:export-xdpi="383.28"
       inkscape:export-ydpi="383.28" />
    <path
       d="m 506.2978,507.14232 c 0.53942,-0.25165 1.58097,-0.10588 2.31954,0.32548 0.73858,0.43136 0.90112,0.9835 0.35457,1.23516 -0.53943,0.25165 -1.58113,0.10625 -2.31954,-0.32548 -0.7389,-0.43061 -0.894,-0.9835 -0.35457,-1.23516"
       style="fill:#6a6c6c;fill-opacity:1;fill-rule:nonzero;stroke:none"
       id="path8490"
       inkscape:connector-curvature="0"
       inkscape:export-xdpi="383.28"
       inkscape:export-ydpi="383.28" />
  </g>
</svg>
